<?xml version="1.0" encoding="UTF-8"?>
<svg width="200px" height="59px" viewBox="0 0 294 87" version="1.1" xmlns="http://www.w3.org/2000/svg" xmlns:xlink="http://www.w3.org/1999/xlink">
    <!-- Generator: Sketch 43.1 (39012) - http://www.bohemiancoding.com/sketch -->
    <title>btn-appStore</title>
    <desc>Created with Sketch.</desc>
    <defs></defs>
    <g id="Page-1" stroke="none" stroke-width="1" fill="none" fill-rule="evenodd">
        <g id="Desktop-HD" transform="translate(-403.000000, -2981.000000)">
            <g id="btn-appStore" transform="translate(403.000000, 2981.000000)">
                <path d="M12.1370787,0 L281.530337,0 C288.01573,0 293.337079,5.31320755 293.337079,11.7886792 L293.337079,74.8830189 C293.337079,81.3584906 288.01573,86.6716981 281.530337,86.6716981 L12.1370787,86.6716981 C5.65168539,86.6716981 0.330337079,81.3584906 0.330337079,74.8830189 L0.330337079,11.7886792 C0.330337079,5.31320755 5.65168539,0 12.1370787,0 L12.1370787,0 Z" id="Shape" fill="#222221"></path>
                <g id="Group" transform="translate(19.955056, 18.264151)" fill-rule="nonzero" fill="#FFFFFF">
                    <g id="Shape">
                        <path d="M34.0876404,27.5622642 C34.0876404,21.2528302 39.2426966,18.0981132 39.5752809,18.0981132 C36.5820225,13.7811321 32.0921348,13.1169811 30.4292135,13.1169811 C26.6044944,12.7849057 22.7797753,15.4415094 20.7842697,15.4415094 C18.788764,15.4415094 15.7955056,13.1169811 12.4696629,13.2830189 C8.31235955,13.2830189 4.32134831,15.7735849 2.15955056,19.5924528 C-2.33033708,27.2301887 0.995505618,38.5207547 5.31910112,44.8301887 C7.48089888,47.8188679 9.9752809,51.3056604 13.1348315,51.1396226 C16.294382,50.9735849 17.458427,49.1471698 21.2831461,49.1471698 C25.1078652,49.1471698 26.2719101,51.1396226 29.5977528,51.1396226 C33.0898876,51.1396226 35.2516854,48.1509434 37.247191,44.9962264 C39.741573,41.509434 40.7393258,38.0226415 40.7393258,37.8566038 C40.7393258,37.690566 34.0876404,35.0339623 34.0876404,27.5622642 Z"></path>
                        <path d="M27.7685393,8.96603774 C29.4314607,6.80754717 30.5955056,3.98490566 30.2629213,0.996226415 C27.7685393,1.16226415 24.6089888,2.65660377 22.9460674,4.81509434 C21.2831461,6.64150943 19.952809,9.63018868 20.2853933,12.4528302 C23.1123596,12.6188679 25.9393258,11.1245283 27.7685393,8.96603774 Z"></path>
                    </g>
                    <g transform="translate(57.202247, 15.943396)" id="Shape">
                        <path d="M22.9483146,26.5622642 L18.458427,26.5622642 L16.1303371,18.9245283 L7.6494382,18.9245283 L5.32134831,26.5622642 L0.997752809,26.5622642 L9.47865169,0.494339623 L14.6337079,0.494339623 L22.9483146,26.5622642 Z M15.4651685,15.7698113 L13.1370787,8.96226415 C12.9707865,8.29811321 12.4719101,6.63773585 11.8067416,3.98113208 L11.8067416,3.98113208 C11.4741573,5.14339623 11.141573,6.80377358 10.6426966,8.96226415 L8.31460674,15.7698113 L15.4651685,15.7698113 Z"></path>
                        <path d="M44.5662921,16.9320755 C44.5662921,20.0867925 43.7348315,22.5773585 41.905618,24.5698113 C40.4089888,26.2301887 38.4134831,27.0603774 36.0853933,27.0603774 C33.5910112,27.0603774 31.7617978,26.2301887 30.7640449,24.4037736 L30.7640449,24.4037736 L30.7640449,34.3660377 L26.6067416,34.3660377 L26.6067416,13.9433962 C26.6067416,11.9509434 26.6067416,9.79245283 26.4404494,7.8 L30.0988764,7.8 L30.2651685,10.7886792 L30.2651685,10.7886792 C31.5955056,8.46415094 33.7573034,7.46792453 36.5842697,7.46792453 C38.7460674,7.46792453 40.741573,8.29811321 42.0719101,10.1245283 C43.9011236,11.7849057 44.5662921,14.109434 44.5662921,16.9320755 Z M40.4089888,17.0981132 C40.4089888,15.2716981 40.0764045,13.7773585 39.2449438,12.6150943 C38.4134831,11.4528302 37.0831461,10.7886792 35.5865169,10.7886792 C34.588764,10.7886792 33.5910112,11.1207547 32.7595506,11.7849057 C31.9280899,12.4490566 31.4292135,13.445283 31.0966292,14.4415094 C30.9303371,14.9396226 30.9303371,15.4377358 30.9303371,15.7698113 L30.9303371,18.9245283 C30.9303371,20.2528302 31.4292135,21.4150943 32.2606742,22.4113208 C33.0921348,23.4075472 34.2561798,23.9056604 35.5865169,23.9056604 C37.0831461,23.9056604 38.4134831,23.2415094 39.2449438,22.0792453 C39.9101124,20.7509434 40.4089888,19.090566 40.4089888,17.0981132 Z"></path>
                        <path d="M66.3505618,16.9320755 C66.3505618,20.0867925 65.5191011,22.5773585 63.6898876,24.5698113 C62.1932584,26.2301887 60.1977528,27.0603774 57.8696629,27.0603774 C55.3752809,27.0603774 53.5460674,26.2301887 52.5483146,24.4037736 L52.5483146,24.4037736 L52.5483146,34.3660377 L48.3910112,34.3660377 L48.3910112,13.9433962 C48.3910112,11.9509434 48.3910112,9.79245283 48.2247191,7.8 L51.8831461,7.8 L52.0494382,10.7886792 L52.0494382,10.7886792 C53.3797753,8.46415094 55.541573,7.46792453 58.3685393,7.46792453 C60.5303371,7.46792453 62.5258427,8.29811321 63.8561798,10.1245283 C65.5191011,11.7849057 66.3505618,14.109434 66.3505618,16.9320755 Z M62.0269663,17.0981132 C62.0269663,15.2716981 61.694382,13.7773585 60.8629213,12.6150943 C60.0314607,11.4528302 58.7011236,10.7886792 57.2044944,10.7886792 C56.2067416,10.7886792 55.2089888,11.1207547 54.3775281,11.7849057 C53.5460674,12.4490566 53.047191,13.445283 52.7146067,14.4415094 C52.5483146,14.9396226 52.5483146,15.4377358 52.5483146,15.7698113 L52.5483146,18.9245283 C52.5483146,20.2528302 53.047191,21.4150943 53.8786517,22.4113208 C54.7101124,23.4075472 55.8741573,23.9056604 57.2044944,23.9056604 C58.7011236,23.9056604 60.0314607,23.2415094 60.8629213,22.0792453 C61.5280899,20.7509434 62.0269663,19.090566 62.0269663,17.0981132 Z"></path>
                        <path d="M90.4629213,19.2566038 C90.4629213,21.4150943 89.6314607,23.2415094 88.1348315,24.7358491 C86.4719101,26.2301887 84.1438202,27.0603774 80.9842697,27.0603774 C78.1573034,27.0603774 75.9955056,26.5622642 74.1662921,25.4 L75.1640449,21.9132075 C76.9932584,23.0754717 78.988764,23.5735849 81.1505618,23.5735849 C82.647191,23.5735849 83.9775281,23.2415094 84.8089888,22.5773585 C85.6404494,21.9132075 86.1393258,20.9169811 86.1393258,19.754717 C86.1393258,18.7584906 85.8067416,17.7622642 84.9752809,17.0981132 C84.3101124,16.4339623 82.9797753,15.7698113 81.3168539,15.1056604 C76.6606742,13.445283 74.4988764,10.954717 74.4988764,7.63396226 C74.4988764,5.4754717 75.3303371,3.81509434 76.8269663,2.32075472 C78.4898876,0.99245283 80.4853933,0.328301887 83.1460674,0.328301887 C85.4741573,0.328301887 87.4696629,0.660377358 89.1325843,1.49056604 L88.1348315,4.97735849 C86.6382022,4.14716981 84.9752809,3.81509434 83.1460674,3.81509434 C81.6494382,3.81509434 80.4853933,4.14716981 79.6539326,4.97735849 C78.988764,5.64150943 78.6561798,6.47169811 78.6561798,7.30188679 C78.6561798,8.29811321 78.988764,9.12830189 79.8202247,9.79245283 C80.4853933,10.4566038 81.8157303,11.1207547 83.6449438,11.7849057 C85.9730337,12.6150943 87.4696629,13.7773585 88.6337079,14.9396226 C89.9640449,15.9358491 90.4629213,17.4301887 90.4629213,19.2566038 Z"></path>
                        <path d="M104.431461,10.954717 L99.7752809,10.954717 L99.7752809,20.0867925 C99.7752809,22.4113208 100.606742,23.5735849 102.269663,23.5735849 C102.934831,23.5735849 103.6,23.5735849 104.098876,23.4075472 L104.265169,26.5622642 C103.433708,26.8943396 102.435955,27.0603774 100.939326,27.0603774 C99.2764045,27.0603774 97.9460674,26.5622642 97.1146067,25.5660377 C96.1168539,24.5698113 95.7842697,22.909434 95.7842697,20.4188679 L95.7842697,10.954717 L92.9573034,10.954717 L92.9573034,7.8 L95.7842697,7.8 L95.7842697,4.31320755 L99.941573,3.1509434 L99.941573,7.8 L104.597753,7.8 L104.597753,10.954717 L104.431461,10.954717 Z"></path>
                        <path d="M125.217978,17.0981132 C125.217978,19.9207547 124.386517,22.4113208 122.723596,24.2377358 C121.060674,26.2301887 118.732584,27.0603774 115.905618,27.0603774 C113.078652,27.0603774 110.916854,26.0641509 109.253933,24.2377358 C107.591011,22.4113208 106.759551,20.0867925 106.759551,17.2641509 C106.759551,14.2754717 107.591011,11.9509434 109.253933,10.1245283 C110.916854,8.29811321 113.244944,7.30188679 116.07191,7.30188679 C118.898876,7.30188679 121.060674,8.29811321 122.723596,10.1245283 C124.386517,11.9509434 125.217978,14.2754717 125.217978,17.0981132 Z M120.894382,17.2641509 C120.894382,15.6037736 120.561798,14.109434 119.730337,12.7811321 C118.898876,11.2867925 117.568539,10.4566038 115.905618,10.4566038 C114.242697,10.4566038 112.91236,11.2867925 112.080899,12.7811321 C111.249438,13.9433962 110.916854,15.6037736 110.916854,17.2641509 C110.916854,18.9245283 111.249438,20.4188679 112.080899,21.7471698 C112.91236,23.2415094 114.242697,24.0716981 115.905618,24.0716981 C117.568539,24.0716981 118.732584,23.2415094 119.730337,21.7471698 C120.395506,20.4188679 120.894382,18.9245283 120.894382,17.2641509 Z"></path>
                        <path d="M138.853933,11.4528302 C138.521348,11.4528302 138.022472,11.2867925 137.523596,11.2867925 C136.026966,11.2867925 134.862921,11.7849057 134.031461,12.9471698 C133.366292,13.9433962 133.033708,15.1056604 133.033708,16.6 L133.033708,26.3962264 L128.876404,26.3962264 L128.876404,13.445283 C128.876404,11.2867925 128.876404,9.29433962 128.710112,7.46792453 L132.368539,7.46792453 L132.534831,11.1207547 L132.701124,11.1207547 C133.2,9.95849057 133.865169,8.96226415 134.862921,8.13207547 C135.860674,7.46792453 136.858427,7.13584906 137.85618,7.13584906 L138.853933,7.13584906 L138.853933,11.4528302 Z"></path>
                        <path d="M157.478652,16.2679245 C157.478652,17.0981132 157.478652,17.5962264 157.31236,18.0943396 L144.674157,18.0943396 C144.674157,19.9207547 145.339326,21.4150943 146.503371,22.4113208 C147.501124,23.2415094 148.997753,23.7396226 150.660674,23.7396226 C152.489888,23.7396226 154.152809,23.4075472 155.81573,22.909434 L156.480899,25.7320755 C154.651685,26.5622642 152.65618,26.8943396 150.161798,26.8943396 C147.168539,26.8943396 145.006742,26.0641509 143.34382,24.2377358 C141.680899,22.5773585 140.849438,20.2528302 140.849438,17.2641509 C140.849438,14.4415094 141.680899,12.1169811 143.177528,10.1245283 C144.840449,8.13207547 147.002247,7.13584906 149.829213,7.13584906 C152.489888,7.13584906 154.651685,8.13207547 155.982022,10.1245283 C156.979775,11.9509434 157.478652,13.9433962 157.478652,16.2679245 Z M153.48764,15.2716981 C153.48764,14.109434 153.321348,12.9471698 152.65618,12.1169811 C151.991011,10.954717 150.826966,10.4566038 149.330337,10.4566038 C148,10.4566038 146.835955,10.954717 146.004494,12.1169811 C145.339326,12.9471698 144.840449,14.109434 144.840449,15.4377358 L153.48764,15.4377358 L153.48764,15.2716981 Z"></path>
                    </g>
                </g>
                <g id="Group" transform="translate(87.134831, 13.283019)" fill-rule="nonzero" fill="#FFFFFF">
                    <path d="M0.665168539,2.15849057 L2.99325843,2.15849057 C6.31910112,2.15849057 9.14606742,3.98490566 9.14606742,7.63773585 C9.14606742,11.4566038 6.31910112,13.2830189 2.82696629,13.2830189 L0.498876404,13.2830189 L0.498876404,2.15849057 L0.665168539,2.15849057 Z M1.99550562,11.954717 L2.49438202,11.954717 C5.32134831,11.954717 7.81573034,10.9584906 7.81573034,7.63773585 C7.81573034,4.48301887 5.32134831,3.32075472 2.49438202,3.32075472 L1.99550562,3.32075472 L1.99550562,11.954717 Z" id="Shape"></path>
                    <path d="M12.305618,3.15471698 C12.305618,3.65283019 11.9730337,3.98490566 11.4741573,3.98490566 C10.9752809,3.98490566 10.6426966,3.65283019 10.6426966,3.15471698 C10.6426966,2.65660377 10.9752809,2.15849057 11.4741573,2.15849057 C11.9730337,2.15849057 12.305618,2.65660377 12.305618,3.15471698 Z M12.1393258,13.1169811 L10.8089888,13.1169811 L10.8089888,6.30943396 L12.1393258,6.30943396 L12.1393258,13.1169811 Z" id="Shape"></path>
                    <path d="M16.9617978,7.80377358 C16.7955056,7.47169811 16.4629213,7.13962264 16.1303371,7.13962264 C15.7977528,7.13962264 15.4651685,7.47169811 15.4651685,7.80377358 C15.4651685,8.46792453 16.2966292,8.63396226 17.1280899,8.96603774 C17.9595506,9.29811321 18.7910112,9.79622642 18.7910112,10.9584906 C18.7910112,12.2867925 17.6269663,13.2830189 16.4629213,13.2830189 C15.4651685,13.2830189 14.4674157,12.7849057 14.1348315,11.7886792 L15.2988764,11.290566 C15.6314607,11.7886792 15.9640449,12.1207547 16.6292135,12.1207547 C17.1280899,12.1207547 17.6269663,11.7886792 17.6269663,11.1245283 C17.6269663,10.7924528 17.4606742,10.6264151 17.1280899,10.2943396 L15.7977528,9.63018868 C14.9662921,9.29811321 14.4674157,8.8 14.4674157,7.96981132 C14.4674157,6.80754717 15.2988764,5.97735849 16.4629213,5.97735849 C17.294382,5.97735849 17.9595506,6.4754717 18.2921348,7.13962264 L16.9617978,7.80377358 Z" id="Shape"></path>
                    <path d="M21.1191011,7.47169811 L21.1191011,7.47169811 C21.6179775,6.64150943 22.4494382,6.14339623 23.6134831,6.14339623 C25.6089888,6.14339623 26.7730337,7.80377358 26.7730337,9.79622642 C26.7730337,11.7886792 25.6089888,13.4490566 23.447191,13.4490566 C22.4494382,13.4490566 21.6179775,12.9509434 21.1191011,12.1207547 L21.1191011,12.1207547 L21.1191011,17.1018868 L19.788764,17.1018868 L19.788764,6.30943396 L21.1191011,6.30943396 L21.1191011,7.47169811 Z M25.4426966,9.79622642 C25.4426966,8.46792453 24.611236,7.30566038 23.2808989,7.30566038 C21.9505618,7.30566038 21.1191011,8.46792453 21.1191011,9.79622642 C21.1191011,11.1245283 21.9505618,12.2867925 23.2808989,12.2867925 C24.611236,12.2867925 25.4426966,11.1245283 25.4426966,9.79622642 Z" id="Shape"></path>
                    <path d="M34.7550562,9.79622642 C34.7550562,11.7886792 33.0921348,13.4490566 31.0966292,13.4490566 C29.1011236,13.4490566 27.4382022,11.7886792 27.4382022,9.79622642 C27.4382022,7.80377358 29.1011236,6.14339623 31.0966292,6.14339623 C33.0921348,6.14339623 34.7550562,7.63773585 34.7550562,9.79622642 Z M28.7685393,9.79622642 C28.7685393,11.1245283 29.7662921,12.1207547 31.0966292,12.1207547 C32.4269663,12.1207547 33.4247191,10.9584906 33.4247191,9.79622642 C33.4247191,8.46792453 32.4269663,7.47169811 31.0966292,7.47169811 C29.7662921,7.30566038 28.7685393,8.46792453 28.7685393,9.79622642 Z" id="Shape"></path>
                    <path d="M37.2494382,7.13962264 L37.2494382,7.13962264 C37.7483146,6.4754717 38.5797753,5.97735849 39.411236,5.97735849 C41.4067416,5.97735849 41.905618,7.30566038 41.905618,8.96603774 L41.905618,13.1169811 L40.5752809,13.1169811 L40.5752809,9.13207547 C40.5752809,7.96981132 40.4089888,7.13962264 39.0786517,7.13962264 C37.4157303,7.13962264 37.4157303,8.63396226 37.4157303,9.96226415 L37.4157303,13.1169811 L36.0853933,13.1169811 L36.0853933,6.30943396 L37.4157303,6.30943396 L37.4157303,7.13962264 L37.2494382,7.13962264 Z" id="Shape"></path>
                    <path d="M46.5617978,2.98867925 L44.0674157,5.14716981 L43.4022472,4.81509434 L45.2314607,2.3245283 L46.5617978,2.98867925 Z M45.2314607,13.1169811 L43.9011236,13.1169811 L43.9011236,6.30943396 L45.2314607,6.30943396 L45.2314607,13.1169811 Z" id="Shape"></path>
                    <polygon id="Shape" points="49.7213483 10.6264151 51.7168539 6.30943396 53.2134831 6.30943396 49.7213483 13.4490566 46.2292135 6.30943396 47.7258427 6.30943396"></polygon>
                    <path d="M54.7101124,9.96226415 C54.7101124,11.1245283 55.541573,12.2867925 56.705618,12.2867925 C57.7033708,12.2867925 58.2022472,11.7886792 58.7011236,10.9584906 L59.8651685,11.6226415 C59.2,12.7849057 58.0359551,13.4490566 56.705618,13.4490566 C54.5438202,13.4490566 53.3797753,11.7886792 53.3797753,9.79622642 C53.3797753,7.63773585 54.5438202,6.14339623 56.705618,6.14339623 C58.8674157,6.14339623 59.8651685,7.80377358 59.8651685,9.79622642 L59.8651685,9.96226415 L54.7101124,9.96226415 Z M58.7011236,8.96603774 C58.5348315,7.96981132 57.8696629,7.30566038 56.8719101,7.30566038 C55.8741573,7.30566038 55.0426966,7.96981132 54.8764045,8.96603774 L58.7011236,8.96603774 Z" id="Shape"></path>
                    <polygon id="Shape" points="62.5258427 13.1169811 61.1955056 13.1169811 61.1955056 0.332075472 62.5258427 0.332075472"></polygon>
                    <path d="M69.8426966,7.13962264 L69.8426966,7.13962264 C70.341573,6.4754717 71.1730337,5.97735849 72.0044944,5.97735849 C74,5.97735849 74.4988764,7.30566038 74.4988764,8.96603774 L74.4988764,13.1169811 L73.1685393,13.1169811 L73.1685393,9.13207547 C73.1685393,7.96981132 73.0022472,7.13962264 71.6719101,7.13962264 C70.0089888,7.13962264 70.0089888,8.63396226 70.0089888,9.96226415 L70.0089888,13.1169811 L68.6786517,13.1169811 L68.6786517,6.30943396 L69.8426966,6.30943396 L69.8426966,7.13962264 Z" id="Shape"></path>
                    <path d="M82.8134831,13.1169811 L81.4831461,13.1169811 L81.4831461,12.1207547 L81.4831461,12.1207547 C80.9842697,12.9509434 80.152809,13.4490566 79.1550562,13.4490566 C76.9932584,13.4490566 75.8292135,11.6226415 75.8292135,9.79622642 C75.8292135,7.96981132 77.1595506,6.14339623 79.1550562,6.14339623 C80.152809,6.14339623 80.9842697,6.64150943 81.4831461,7.47169811 L81.4831461,7.47169811 L81.4831461,6.30943396 L82.8134831,6.30943396 L82.8134831,13.1169811 Z M81.4831461,9.79622642 C81.4831461,8.46792453 80.6516854,7.30566038 79.3213483,7.30566038 C77.9910112,7.30566038 77.1595506,8.46792453 77.1595506,9.79622642 C77.1595506,11.1245283 77.9910112,12.2867925 79.3213483,12.2867925 C80.6516854,12.2867925 81.4831461,11.1245283 81.4831461,9.79622642 Z" id="Shape"></path>
                </g>
            </g>
        </g>
    </g>
</svg>
